<svg xmlns="http://www.w3.org/2000/svg" viewBox="0 0 294 294" width="294" height="294">
  <defs>
    <style>
      .a {
        fill: #333;
      }

      .b {
        fill: #89a738;
      }
    </style>
  </defs>
  <title>sh_shield_08</title>
  <g>
    <path class="a" d="M186.06083,204.68262l.08642-.084c.09424-.0918,9.50879-9.249,20.58447-20.124l.10157-.19287.65625-.64454-.01026.10254c6.55908-6.44189,12.39356-12.20361,17.34912-17.13232l1.43994-1.43359c5.80616-5.78418,10.25245-10.2793,13.21534-13.35987l1.08691-1.13721c1.313-1.38232,2.251-2.40966,2.7876-3.05273a3.70343,3.70343,0,0,0,.50342-.67871c.03222-.0835.08691-.55957-.57325-3.15576-.6333-2.48877-1.76953-6.33545-3.37939-11.44141-1.33057-4.21826-2.93994-9.16064-4.7959-14.72949l-.09863.041-.03662-.269-.126-.38037.04639-.03418c-.89893-2.69531-1.8208-5.43066-2.74121-8.13916l-3.0127-8.76855.0083-.00684-.105-.30322-.00976.00146-.17432-.50634.00781-.0044-.40185-1.16162-.13477-.37354-.50781-1.47705c-.56885-1.63476-5.42432-15.2622-5.42432-15.2622-1.11328-3.01612-1.42724-3.7168-1.51562-3.86524a9.63952,9.63952,0,0,0-1.15088-1.27148c-1.86963-1.50977-5.3169-2.53272-8.562-2.53272a12.09385,12.09385,0,0,0-3.4336.45069l-.22412.0664-.00244-.00683L157.75663,87.83936l-2.99756.84912-.0127-.00976c-1.98437.55615-3.7622,1.061-5.27637,1.501a39.9473,39.9473,0,0,0-5.25488,1.67872c-1.09424.7749.44385,11.67724,1.68408,18.45214,1.4126.77295,17.02881,9.15235,31.04883,9.81055.083.00391.16651.00537.251.00537,7.07324,0,19.44922-13.37207,19.57324-13.50683l.41309.26953c-2.51465,5.70654-6.2085,14.627-6.07959,15.814.18261,1.69043,2.59814,4.46338,3.334,5.27344.68311.75,10.18408,1.793,16.01221,2.27393l.001.498c-.25.022-25.12305,2.22705-33.87256,7.10987-11.74366,6.55322-50.21192,30.34521-52.17286,61.35107-.01171.18457-.0205.31885-.02978.40039-.10449.916,7.418,1.80322,11.91211,2.333a71.852,71.852,0,0,1,8.75928,1.32178l.25683.07666-6.35449,16.88378-17.46094,45.84131-.478-.14111,12.00781-56.374a30.26289,30.26289,0,0,1-6.77295.74218,28.37708,28.37708,0,0,1-11.61572-2.36914l-.14063-.0625-.00732-.15381c-1.06543-21.3872,11.624-38.52929,22.45654-49.144a120.8992,120.8992,0,0,1,22.87158-17.4541c-6.62305.81689-37.21289,4.5957-39.25146,4.97314-1.78662.32911-18.27637,11.37208-26.7461,17.165l-.15088.103-32.7915-25.61816c-4.41064,14.50586,10.2417,52.17285,10.41113,52.49658,3.15088,6.03027,22.88819,22.7207,23.08692,22.88867l.09765.082-4.04785,55.44824-.32812-.15234a134.29385,134.29385,0,0,1,56.54-256.02637A134.776,134.776,0,0,1,263.05545,79.62647a134.2924,134.2924,0,0,1-49.14892,183.42822,135.54144,135.54144,0,0,1-20.77344,9.74415l-.30322.1123ZM74.32254,97.22169c-4.94775,0-13.064,6.49853-18.05175,12.78174-3.07715,3.876-4.58838,7.189-4.14551,9.08984,3.70166,8.1206,39.05566,36.21533,40.91064,36.98a1.46075,1.46075,0,0,0,.54688.08887c3.74707,0,15.186-8.061,16.73877-11.2334.13525-.27637.26172-.65088.09668-.86377-4.043-5.20508-9.55713-12.65674-14.88965-19.86279-8.57422-11.5879-17.439-23.5669-20.728-26.9585C74.64481,97.22852,74.48563,97.22169,74.32254,97.22169Zm4.54395-6.37451c4.375,11.85449,34.1499,48.89111,36.2915,49.5249a6.06973,6.06973,0,0,0,1.53223.13525c5.519,0,21.354-2.74072,31.00635-5.04346-3.59229-7.30322-29.9419-51.69628-39.87256-64.99609q-.23658-.02271-.5-.023C100.6077,70.44483,80.3909,81.99171,78.86649,90.84718Zm78.33984,44.50146,19.75049-5.12109-1.57568-4.06787-30.31836-8.51514Zm-9.13818-84.34033c-16.8667.06152-34.27344,14.72314-34.78125,15.55224a6.518,6.518,0,0,0,.88379,2.20215l.7959,1.48242c.4292.769.93164,1.63233,1.4917,2.56592l1.61279,2.6333c6.35205,10.19629,17.19531,25.8418,19.82178,29.61573-.46338-3.69581-1.71143-14.99366.15966-16.31934a21.17275,21.17275,0,0,1,3.88086-1.5498l10.46827-3.2461,3.25927-.95215,7.30127-2.07861-2.1416-4.31836-.46631-.93018.00147-.00732-3.44336-6.9209c-1.36182-2.73193-2.75-5.73535-3.97461-8.38525C150.95389,56.05958,148.70536,51.19532,148.06815,51.00831Zm42.01025-14.4458c-5.62207,0-35.80859,9.94775-35.88818,11.82666C154.09891,50.52735,164.012,69.23,169.35233,78.979L205.802,69.271c-5.54737-12.91064-14.12793-32.07715-15.34375-32.67334A1.4397,1.4397,0,0,0,190.0784,36.56251Z" />
    <path class="b" d="M116.69022,140.85743a6.34411,6.34411,0,0,1-1.63135-.1499c-2.85156-.84375-32.61328-39.0127-36.54345-49.80225C79.16,86.85206,83.64481,81.834,90.81473,77.0879c6.2207-4.11719,13.00928-6.99317,16.50928-6.99317a5.29068,5.29068,0,0,1,.64746.0376c10.09131,13.42285,37.16162,59.0752,40.17529,65.46l.05274.11084-.11963.02881c-9.63867,2.32129-25.78906,5.12549-31.38965,5.12549Z" />
    <path class="b" d="M93.58231,156.51173a1.78747,1.78747,0,0,1-.68018-.11524c-1.86279-.76758-37.37451-28.99609-41.11132-37.20508-.47364-2.02392,1.061-5.44482,4.20459-9.40478,5.03955-6.34815,13.27246-12.915,18.32714-12.915a5.30639,5.30639,0,0,1,.605.03369c3.31543,3.34863,12.2461,15.41748,20.88282,27.08887,5.33105,7.20459,10.84375,14.65429,14.88427,19.85595.22168.28565.20166.7002-.05859,1.23291-1.62646,3.32178-13.11279,11.42872-17.05322,11.42872Z" />
    <path class="b" d="M169.13944,79.31885C168.51,78.17042,153.722,51.15968,153.84012,48.374c.07031-1.65088,12.53272-5.79834,16.35059-7.03027,7.71045-2.48731,17.30078-5.13135,19.88769-5.13135a1.73019,1.73019,0,0,1,.49121.05371c1.647.51172,15.0962,31.80078,15.668,33.13232l.0459.10645-37.106,9.88281Z" />
    <polygon class="b" points="144.228 117.046 175.596 125.856 177.425 130.468 157.056 135.749 144.228 117.046" />
    <path class="b" d="M138.19022,106.09913c-.13086-.187-13.18164-18.85742-20.41748-30.47168l-1.61426-2.63574c-.5625-.938-1.06689-1.80371-1.5-2.57959l-.79834-1.48877a5.7531,5.7531,0,0,1-.89844-2.481c.12989-.69287,18.08887-15.72754,35.11329-15.78418.73242,0,2.36279,3.45068,5.18164,9.54932,1.22363,2.647,2.60986,5.647,3.96533,8.3667l3.65625,7.35546,2.58447,5.20606-7.7041,2.19287-3.25537.95117-10.46,3.24365a21.6151,21.6151,0,0,0-3.78858,1.50293c-1.97851,1.40186.09571,16.8462.1167,17.002Z" />
    <path class="b" d="M273.85306,73.39283A146.74731,146.74731,0,1,0,220.14017,273.853,146.76481,146.76481,0,0,0,273.85306,73.39283ZM213.78165,262.83826a134.81712,134.81712,0,0,1-20.64136,9.691l-6.7489-67.67968c.09424-.09229,9.58643-9.32471,20.72022-20.25782l.12011-.11865c6.75733-6.63476,12.76075-12.562,17.84327-17.61767l1.44043-1.4336c5.82031-5.79883,10.26806-10.29541,13.2207-13.36572l1.08691-1.1377c1.31934-1.38818,2.26221-2.42089,2.814-3.083a3.44791,3.44791,0,0,0,.5498-.76123c.07813-.19629.10449-.75977-.56152-3.3794-.63623-2.49805-1.77442-6.35107-3.395-11.49023-1.33838-4.24317-2.97559-9.27-4.8667-14.94043l-.07129-.14746.01807-.01221-.02442-.07227c-.91748-2.75-1.85791-5.543-2.79736-8.30859l-2.97314-8.51172.04443-.04443-.189-.54346-.00927.00195-.07422-.21679.0083-.00489-.62647-1.80859L228.617,97.459l-.45948-1.33594c-.56933-1.63623-5.42529-15.26611-5.42578-15.26709-.85693-2.32226-1.376-3.64257-1.54345-3.9248a10.21869,10.21869,0,0,0-1.2168-1.35205c-1.97363-1.59424-5.42676-2.624-8.79785-2.624a12.56453,12.56453,0,0,0-3.4336.436l-49.2998,13.896-.77734.21533-.0044.00488-2.77978.83106-.10547-.03077c-2.03467.56983-3.855,1.08692-5.42139,1.54151-4.416,1.28271-5.16211,1.59814-5.33887,1.72363-1.67431,1.18555,1.43018,18.19385,1.6128,18.98682.16406.09179,16.5957,9.2207,31.30517,9.91113.08838.00391.17774.00586.26758.00586,6.49658,0,17.24072-10.90039,19.43359-13.19873-1.15185,2.63623-6.04,13.9375-5.87451,15.46289.189,1.74658,2.457,4.40771,3.42334,5.47119.86865.9541,11.6084,1.979,15.14307,2.29248-4.94092.49072-25.16358,2.72315-32.915,7.04834-21.09473,11.77246-36.20361,25.15674-44.90674,39.78223-3.09473,5.19971-6.89795,13.21191-7.44433,21.85156-.01123.17676-.01905.30518-.02784.3833-.13427,1.17481,4.75147,1.83985,12.21973,2.7207a75.6509,75.6509,0,0,1,8.5957,1.27979l-6.22119,16.53125L121.62479,264.731l11.856-55.66308-.16016.0459a28.47009,28.47009,0,0,1-7.07324.82959,28.04243,28.04243,0,0,1-11.418-2.314c-1.97607-40.65283,45.772-66.57666,46.25439-66.834l-.05908-.1875c-.38232.04687-38.24219,4.70752-40.52783,5.13086-2.271.41845-25.17529,16.0542-26.82031,17.17871L60.69217,137.14893l-.04443.13428c-2.47559,7.42627.37256,21.27148,3.19775,31.57861a210.00375,210.00375,0,0,0,7.12647,21.5293c3.18262,6.09131,22.97265,22.82617,23.13721,22.91064L90.10038,268.224a134.027,134.027,0,1,1,123.68127-5.38569ZM235.24686,117.147l.023-.01563-.021.02Z" />
  </g>
</svg>
